<?xml version="1.0" encoding="UTF-8"?>
<svg version="1.1" xmlns="http://www.w3.org/2000/svg" width="225" height="225">
<path d="M0 0 C74.25 0 148.5 0 225 0 C225 74.25 225 148.5 225 225 C150.75 225 76.5 225 0 225 C0 150.75 0 76.5 0 0 Z " fill="#FEFEFE" transform="translate(0,0)"/>
<path d="M0 0 C4.75044219 1.64106185 7.70722875 4.22299768 11 8 C11 8.66 11 9.32 11 10 C11.96039185 9.97643433 11.96039185 9.97643433 12.94018555 9.95239258 C15.85586631 9.88982885 18.77140555 9.85094192 21.6875 9.8125 C22.69490234 9.78736328 23.70230469 9.76222656 24.74023438 9.73632812 C34.1579348 9.64308357 34.1579348 9.64308357 38 13 C40.34549674 16.51824511 40.57991403 17.85775694 40 22 C37.827365 24.57285724 36.02006162 26.48996919 33 28 C30.12089412 28.23274209 27.25853505 28.41972757 24.375 28.5625 C23.57320313 28.60568359 22.77140625 28.64886719 21.9453125 28.69335938 C19.9637489 28.79951457 17.98189729 28.90026855 16 29 C16.55252441 29.31155029 17.10504883 29.62310059 17.67431641 29.9440918 C25.81081163 34.60908362 31.34857187 40.89548715 34 50 C34.46365189 54.86834484 34.3799209 59.67797372 34.25 64.5625 C34.23195313 65.85736328 34.21390625 67.15222656 34.1953125 68.48632812 C34.14849322 71.65833414 34.08292473 74.82876704 34 78 C34.61125732 77.98114746 35.22251465 77.96229492 35.85229492 77.94287109 C36.65771729 77.92820801 37.46313965 77.91354492 38.29296875 77.8984375 C39.08985107 77.87958496 39.8867334 77.86073242 40.70776367 77.84130859 C45.45253104 78.1697886 48.10424124 81.00116399 51.13647461 84.38232422 C54.20733676 89.16111386 53.54332091 94.77774414 53.50390625 100.2578125 C53.51332748 101.43842255 53.52274872 102.61903259 53.53245544 103.8354187 C53.5610905 107.59878996 53.56418334 111.36152859 53.5625 115.125 C53.56610378 118.89551981 53.5755809 122.66558107 53.60325623 126.43600464 C53.62008757 128.77979709 53.62288705 131.12374103 53.61024475 133.46755981 C53.61712814 134.52901215 53.62401154 135.59046448 53.63110352 136.68408203 C53.63014175 137.61640656 53.62917999 138.54873108 53.62818909 139.50930786 C54.07444 142.49865971 54.87605568 143.86699463 57 146 C60.82176578 146.5558932 63.00274435 146.71919106 66.1885376 144.42169189 C68.66915722 141.10542299 68.51786865 138.8733086 68.54589844 134.75292969 C68.56140495 133.6694072 68.56140495 133.6694072 68.57722473 132.56399536 C68.60665662 130.18306114 68.6081519 127.80297685 68.609375 125.421875 C68.62435649 123.76847715 68.64108357 122.11509428 68.65948486 120.46173096 C68.70317458 116.11506463 68.72316093 111.76860018 68.73822021 107.42175293 C68.75778555 102.98417211 68.79975617 98.54680949 68.83984375 94.109375 C68.91516338 85.40630707 68.96544406 76.70332478 69 68 C67.91074219 68.03351563 66.82148438 68.06703125 65.69921875 68.1015625 C61.14263021 67.97646081 59.45476157 66.91735421 56 64 C51.56686638 58.78785558 51.46539283 54.7075794 51.6875 48.1875 C51.69716797 47.31673828 51.70683594 46.44597656 51.71679688 45.54882812 C51.83116939 39.16883061 51.83116939 39.16883061 53 38 C54.98 38 56.96 38 59 38 C59 33.38 59 28.76 59 24 C60.65 23.67 62.3 23.34 64 23 C65 24 65 24 65.09765625 27.16015625 C65.06510417 30.7734375 65.03255208 34.38671875 65 38 C69.62 38 74.24 38 79 38 C79 33.38 79 28.76 79 24 C80.65 23.67 82.3 23.34 84 23 C85 24 85 24 85.09765625 27.16015625 C85.08025391 29.09181641 85.08025391 29.09181641 85.0625 31.0625 C85.05347656 32.35285156 85.04445312 33.64320312 85.03515625 34.97265625 C85.01775391 36.47119141 85.01775391 36.47119141 85 38 C85.969375 37.979375 86.93875 37.95875 87.9375 37.9375 C91 38 91 38 92 39 C92.30657885 42.05267962 92.27845659 45.12132379 92.3125 48.1875 C92.34150391 49.03892578 92.37050781 49.89035156 92.40039062 50.76757812 C92.45674056 56.37222943 91.76564568 59.57263759 88 64 C83.49660791 67.80286444 80.77887422 68.17781151 75 68 C75.00888245 68.92406143 75.01776489 69.84812286 75.0269165 70.80018616 C75.10718993 79.524628 75.16802921 88.24894512 75.20724869 96.97367191 C75.22809 101.4587643 75.25634405 105.94355057 75.30175781 110.4284668 C75.34533951 114.75974458 75.36916309 119.0907286 75.37950897 123.42220879 C75.3868783 125.07158467 75.40126898 126.72094516 75.42292023 128.37019539 C75.45211925 130.68733105 75.4559493 133.0032655 75.45410156 135.32055664 C75.46298401 136.6373793 75.47186646 137.95420197 75.48101807 139.31092834 C74.79726452 144.55483911 72.8470718 148.31590512 68.875 151.9375 C64.54418107 153.53802004 60.55751179 153.65002973 56 153 C50.94016255 150.60807684 48.95837594 148.17590733 47 143 C46.54343304 138.90391333 46.5351808 134.82549528 46.5234375 130.70703125 C46.50785797 129.52404953 46.49227844 128.34106781 46.47622681 127.12223816 C46.42878782 123.35233189 46.40096594 119.58261011 46.375 115.8125 C46.33850637 112.031808 46.29790162 108.25122047 46.25234985 104.47062683 C46.22513108 102.12019463 46.20377643 99.76968584 46.18881226 97.41914368 C46.17855011 96.35761581 46.16828796 95.29608795 46.15771484 94.20239258 C46.15121918 93.26784744 46.14472351 92.33330231 46.13803101 91.37043762 C46.09450656 88.84927898 46.09450656 88.84927898 45 86 C39.555 85.01 39.555 85.01 34 84 C34.0314209 85.54324951 34.0314209 85.54324951 34.06347656 87.11767578 C34.13614994 90.95298213 34.18189821 94.78822822 34.21972656 98.62402344 C34.23978009 100.28070325 34.26703029 101.93731282 34.30175781 103.59375 C34.35055512 105.98194758 34.37303064 108.36920547 34.390625 110.7578125 C34.41127014 111.49242706 34.43191528 112.22704163 34.45318604 112.98391724 C34.45541934 118.16034363 33.24591688 121.01112223 30 125 C24.93717959 129.46010369 21.98409447 130.14176036 15.375 130.0625 C14.66859375 130.05798828 13.9621875 130.05347656 13.234375 130.04882812 C11.48954725 130.03703875 9.744763 130.01910324 8 130 C8.05220703 131.17755859 8.05220703 131.17755859 8.10546875 132.37890625 C8.39382512 143.5698798 8.39382512 143.5698798 5 149 C1.65010968 152.11061244 -1.01273493 153.26581613 -5.5 153.5 C-9.96327499 153.282096 -12.60484255 151.99097204 -16 149 C-19.12592875 144.86165462 -19.33108832 141.80881683 -19.1875 136.6875 C-19.16042969 135.43324219 -19.13335937 134.17898437 -19.10546875 132.88671875 C-19.07066406 131.93410156 -19.03585938 130.98148438 -19 130 C-20.08539063 130.04640625 -21.17078125 130.0928125 -22.2890625 130.140625 C-23.73434731 130.17816487 -25.17966211 130.21456264 -26.625 130.25 C-27.33785156 130.28351563 -28.05070312 130.31703125 -28.78515625 130.3515625 C-34.00110242 130.44726793 -36.85292551 129.42774784 -41 126 C-44.65126145 120.96377732 -45.12436497 116.74977627 -45.16113281 110.63012695 C-45.17074036 109.33810867 -45.1803479 108.04609039 -45.19024658 106.71492004 C-45.19509617 105.30604225 -45.1993746 103.8971624 -45.203125 102.48828125 C-45.20736607 101.41841004 -45.20736607 101.41841004 -45.21169281 100.32692528 C-45.22666709 96.54940802 -45.2359065 92.77192876 -45.24023438 88.99438477 C-45.2457037 85.11207791 -45.2697038 81.23012448 -45.29820633 77.34792805 C-45.31693321 74.34599328 -45.32204371 71.34414176 -45.32357025 68.34215355 C-45.32657677 66.91216293 -45.33453685 65.48217306 -45.34775543 64.05224037 C-45.43841308 53.48767889 -45.19692157 44.64023753 -37.6875 36.625 C-36.94886719 35.81289062 -36.21023437 35.00078125 -35.44921875 34.1640625 C-32.80282647 31.82578288 -30.2123181 30.43696769 -27 29 C-28.24136719 28.97421875 -29.48273438 28.9484375 -30.76171875 28.921875 C-32.40368028 28.86557918 -34.045606 28.80823217 -35.6875 28.75 C-36.50412109 28.73582031 -37.32074219 28.72164062 -38.16210938 28.70703125 C-42.16584906 28.54493653 -44.51493707 28.28965545 -48.015625 26.19921875 C-50.58126552 23.35580219 -50.9478771 21.67928614 -51.2109375 17.96875 C-50.86866161 14.77417502 -49.27376123 13.14383202 -47 11 C-44.44276771 9.72138385 -42.63262898 9.88663391 -39.7734375 9.90234375 C-38.7421875 9.90556641 -37.7109375 9.90878906 -36.6484375 9.91210938 C-35.02808594 9.92467773 -35.02808594 9.92467773 -33.375 9.9375 C-31.74304687 9.94426758 -31.74304687 9.94426758 -30.078125 9.95117188 C-27.38536211 9.96298224 -24.69270812 9.97945222 -22 10 C-21.69964844 9.36989014 -21.39929688 8.73978027 -21.08984375 8.09057617 C-16.65246631 -0.42135551 -8.53074523 -0.61492921 0 0 Z " fill="#060606" transform="translate(95,36)"/>
<path d="M0 0 C0.77859375 0.49242188 1.5571875 0.98484375 2.359375 1.4921875 C6.9364621 4.10573132 11.87298585 3.5533253 17 3 C19.00781177 2.01577854 21.00892752 1.01765927 23 0 C28.58828899 -0.40359865 33.06722864 0.91628292 37.4296875 4.40625 C43.25761002 10.32115643 45.10594744 16.18578034 45.17700195 24.32568359 C45.19625481 26.2482045 45.19625481 26.2482045 45.21589661 28.20956421 C45.22406384 29.60585136 45.23150761 31.0021429 45.23828125 32.3984375 C45.24235678 33.10439686 45.2464323 33.81035622 45.25063133 34.53770828 C45.27145238 38.27285719 45.28577239 42.00796977 45.29516602 45.74316406 C45.30623563 49.59224235 45.34065241 53.44074337 45.38033772 57.28961754 C45.40652658 60.25797574 45.4148597 63.22619662 45.41844749 66.19466019 C45.4233059 67.61319513 45.43489873 69.03172424 45.45348549 70.45014572 C45.47792549 72.43846365 45.47448736 74.42706434 45.4699707 76.41552734 C45.47583694 77.54485687 45.48170319 78.6741864 45.48774719 79.83773804 C44.88577844 83.74054446 43.43045266 85.92547447 41 89 C37.99686252 90.50156874 35.20932478 90.09281204 31.875 90.0625 C30.59367187 90.05347656 29.31234375 90.04445313 27.9921875 90.03515625 C27.00476563 90.02355469 26.01734375 90.01195312 25 90 C25 87.36 25 84.72 25 82 C28.63 81.67 32.26 81.34 36 81 C35.78841995 72.64258807 34.64035078 67.31088199 29 61 C22.53857316 55.75009069 16.27944339 54.45641993 8.1015625 54.62890625 C1.14769963 55.46091755 -4.15437946 58.46873599 -8.5 63.9375 C-12.23826922 69.57658408 -13.27099124 74.22521902 -13 81 C-9.37 81.33 -5.74 81.66 -2 82 C-2 84.64 -2 87.28 -2 90 C-14.53104884 90.7630544 -14.53104884 90.7630544 -18.0078125 88.95703125 C-21.7586673 85.12756572 -22.13462685 82.02645403 -22.19287109 76.87304688 C-22.21696548 74.9396344 -22.21696548 74.9396344 -22.24154663 72.96716309 C-22.25303954 71.55103213 -22.26364716 70.13489375 -22.2734375 68.71875 C-22.27876118 68.00491653 -22.28408485 67.29108307 -22.28956985 66.55561829 C-22.31631564 62.77048822 -22.33567786 58.98539115 -22.35009766 55.20019531 C-22.36338636 52.08075301 -22.39114074 48.96197274 -22.43212891 45.84277344 C-22.48174417 42.0667235 -22.50625483 38.29126975 -22.51332474 34.51490784 C-22.51999468 33.08290604 -22.5351045 31.65091529 -22.55921555 30.21910095 C-22.6972301 21.52032915 -22.33992546 14.18079825 -17 7 C-11.55306919 1.99940118 -7.54200788 -0.51132257 0 0 Z " fill="#F8F8F8" transform="translate(78,70)"/>
<path d="M0 0 C2.475 0.495 2.475 0.495 5 1 C5 5.62 5 10.24 5 15 C9.62 15 14.24 15 19 15 C19 10.38 19 5.76 19 1 C20.65 0.67 22.3 0.34 24 0 C25 1 25 1 25.09765625 4.16015625 C25.08605469 5.44792969 25.07445312 6.73570313 25.0625 8.0625 C25.05347656 9.35285156 25.04445312 10.64320312 25.03515625 11.97265625 C25.02355469 12.97167969 25.01195312 13.97070312 25 15 C25.969375 14.979375 26.93875 14.95875 27.9375 14.9375 C31 15 31 15 32 16 C32.30657885 19.05267962 32.27845659 22.12132379 32.3125 25.1875 C32.34150391 26.03892578 32.37050781 26.89035156 32.40039062 27.76757812 C32.45674056 33.37222943 31.76564568 36.57263759 28 41 C23.49660791 44.80286444 20.77887422 45.17781151 15 45 C15.00888245 45.92406143 15.01776489 46.84812286 15.0269165 47.80018616 C15.10718993 56.524628 15.16802921 65.24894512 15.20724869 73.97367191 C15.22809 78.4587643 15.25634405 82.94355057 15.30175781 87.4284668 C15.34533951 91.75974458 15.36916309 96.0907286 15.37950897 100.42220879 C15.3868783 102.07158467 15.40126898 103.72094516 15.42292023 105.37019539 C15.45211925 107.68733105 15.4559493 110.0032655 15.45410156 112.32055664 C15.46298401 113.6373793 15.47186646 114.95420197 15.48101807 116.31092834 C14.79726452 121.55483911 12.8470718 125.31590512 8.875 128.9375 C4.54418107 130.53802004 0.55751179 130.65002973 -4 130 C-9.05983745 127.60807684 -11.04162406 125.17590733 -13 120 C-13.45656696 115.90391333 -13.4648192 111.82549528 -13.4765625 107.70703125 C-13.49214203 106.52404953 -13.50772156 105.34106781 -13.52377319 104.12223816 C-13.57121218 100.35233189 -13.59903406 96.58261011 -13.625 92.8125 C-13.66149363 89.031808 -13.70209838 85.25122047 -13.74765015 81.47062683 C-13.77486892 79.12019463 -13.79622357 76.76968584 -13.81118774 74.41914368 C-13.82658096 72.82685188 -13.82658096 72.82685188 -13.84228516 71.20239258 C-13.84878082 70.26784744 -13.85527649 69.33330231 -13.86196899 68.37043762 C-13.90549344 65.84927898 -13.90549344 65.84927898 -15 63 C-15.99 62.67 -16.98 62.34 -18 62 C-17.01 61.505 -17.01 61.505 -16 61 C-16 59.68 -16 58.36 -16 57 C-16.66 56.67 -17.32 56.34 -18 56 C-15.34303932 56.15182632 -13.55765476 56.47324024 -11.58984375 58.33203125 C-8.10121112 62.51228784 -6.87911819 64.77456185 -6.84228516 70.12060547 C-6.83202301 71.18866425 -6.82176086 72.25672302 -6.81118774 73.35714722 C-6.80388641 74.51546051 -6.79658508 75.6737738 -6.7890625 76.8671875 C-6.76099691 79.30339217 -6.73233247 81.73959 -6.703125 84.17578125 C-6.6618198 88.02945793 -6.62494533 91.88300651 -6.59863281 95.73681641 C-6.57108156 99.44721066 -6.52521046 103.15701802 -6.4765625 106.8671875 C-6.47330963 108.02145233 -6.47005676 109.17571716 -6.46670532 110.36495972 C-6.45013885 111.43932281 -6.43357239 112.51368591 -6.41650391 113.62060547 C-6.40437363 115.03718948 -6.40437363 115.03718948 -6.39199829 116.48239136 C-5.92561724 119.47772321 -5.13133117 120.86081196 -3 123 C0.82176578 123.5558932 3.00274435 123.71919106 6.1885376 121.42169189 C8.66915722 118.10542299 8.51786865 115.8733086 8.54589844 111.75292969 C8.55623611 111.03058136 8.56657379 110.30823303 8.57722473 109.56399536 C8.60665662 107.18306114 8.6081519 104.80297685 8.609375 102.421875 C8.62435649 100.76847715 8.64108357 99.11509428 8.65948486 97.46173096 C8.70317458 93.11506463 8.72316093 88.76860018 8.73822021 84.42175293 C8.75778555 79.98417211 8.79975617 75.54680949 8.83984375 71.109375 C8.91516338 62.40630707 8.96544406 53.70332478 9 45 C7.91074219 45.03351563 6.82148438 45.06703125 5.69921875 45.1015625 C1.14263021 44.97646081 -0.54523843 43.91735421 -4 41 C-8.43313362 35.78785558 -8.53460717 31.7075794 -8.3125 25.1875 C-8.30283203 24.31673828 -8.29316406 23.44597656 -8.28320312 22.54882812 C-8.16883061 16.16883061 -8.16883061 16.16883061 -7 15 C-5.00041636 14.95919217 -2.99954746 14.95745644 -1 15 C-1.01160156 14.00097656 -1.02320313 13.00195312 -1.03515625 11.97265625 C-1.04417969 10.68230469 -1.05320313 9.39195313 -1.0625 8.0625 C-1.07410156 6.77472656 -1.08570313 5.48695312 -1.09765625 4.16015625 C-1 1 -1 1 0 0 Z " fill="#020202" transform="translate(155,59)"/>
<path d="M0 0 C3.70910097 1.78586343 5.54021301 3.36223095 7.9375 6.6875 C9.34253594 11.06790615 9.34966134 14.59327441 8 19 C5.33651679 22.29430818 2.30078943 25.62310878 -2.05078125 26.3359375 C-7.52825006 26.43053972 -10.77315572 25.82428768 -15 22 C-17.910372 17.634442 -18.6506249 14.20499921 -18 9 C-13.92170957 1.14551472 -8.57610411 -1.34616096 0 0 Z " fill="#F8F8F8" transform="translate(94,42)"/>
<path d="M0 0 C9.24 0 18.48 0 28 0 C28 4.29 28 8.58 28 13 C22.89563529 18.10436471 20.57415464 18.24842824 13.6875 18.375 C12.92759766 18.41238281 12.16769531 18.44976562 11.38476562 18.48828125 C7.51918443 18.54873343 5.3837851 18.21578675 1.95703125 16.2890625 C0 13 0 13 0 0 Z " fill="#F9F9F9" transform="translate(153,80)"/>
<path d="M0 0 C3.99689373 2.36825292 7.2104617 5.04609468 9.65234375 9.05078125 C10.14734375 12.02078125 10.14734375 12.02078125 10.65234375 15.05078125 C-1.55765625 15.05078125 -13.76765625 15.05078125 -26.34765625 15.05078125 C-25.10734609 7.6089203 -22.67047935 4.44630488 -16.66015625 0.11328125 C-11.14101192 -1.65701033 -5.47560718 -2.21393102 0 0 Z " fill="#FBFBFB" transform="translate(97.34765625,130.94921875)"/>
<path d="M0 0 C4.95 0 9.9 0 15 0 C15.1079196 4.2298487 15.18729193 8.45694493 15.25 12.6875 C15.30027344 14.48477539 15.30027344 14.48477539 15.3515625 16.31835938 C15.36445312 17.47529297 15.37734375 18.63222656 15.390625 19.82421875 C15.41157227 20.88729248 15.43251953 21.95036621 15.45410156 23.0456543 C14.88410745 26.75398696 13.65761577 28.39235498 11 31 C7.5 31.625 7.5 31.625 4 31 C1.34238423 28.39235498 0.11589255 26.75398696 -0.45410156 23.0456543 C-0.4331543 21.98258057 -0.41220703 20.91950684 -0.390625 19.82421875 C-0.37773438 18.66728516 -0.36484375 17.51035156 -0.3515625 16.31835938 C-0.31804687 15.12017578 -0.28453125 13.92199219 -0.25 12.6875 C-0.23195313 11.46998047 -0.21390625 10.25246094 -0.1953125 8.99804688 C-0.1482586 5.99836045 -0.07651797 2.99907948 0 0 Z " fill="#F4F4F4" transform="translate(82,152)"/>
<path d="M0 0 C1.32 0 2.64 0 4 0 C4.71484375 1.640625 4.71484375 1.640625 5 4 C3.56640625 6.796875 3.56640625 6.796875 1.5625 9.75 C0.57443359 11.22726563 0.57443359 11.22726563 -0.43359375 12.734375 C-0.95050781 13.48203125 -1.46742187 14.2296875 -2 15 C-0.88625 15.0825 0.2275 15.165 1.375 15.25 C5 16 5 16 6.35375977 17.79223633 C7 20 7 20 6.29663086 21.9987793 C5.85714111 22.68367432 5.41765137 23.36856934 4.96484375 24.07421875 C4.48466797 24.82380859 4.00449219 25.57339844 3.50976562 26.34570312 C2.99091797 27.11849609 2.47207031 27.89128906 1.9375 28.6875 C1.44572266 29.47189453 0.95394531 30.25628906 0.44726562 31.06445312 C-3.32641302 36.81695141 -3.32641302 36.81695141 -6.68530273 37.72973633 C-7.83107788 37.86351685 -7.83107788 37.86351685 -9 38 C-10.13238877 34.61520953 -10.18086851 33.36518683 -8.56640625 30.10546875 C-7.90511719 29.14253906 -7.24382812 28.17960937 -6.5625 27.1875 C-5.90378906 26.21167969 -5.24507813 25.23585938 -4.56640625 24.23046875 C-4.04949219 23.49441406 -3.53257813 22.75835937 -3 22 C-4.670625 22.061875 -4.670625 22.061875 -6.375 22.125 C-10 22 -10 22 -12 20 C-11.62654197 16.97615701 -10.43984595 14.85694039 -8.75 12.36328125 C-8.3065625 11.70392578 -7.863125 11.04457031 -7.40625 10.36523438 C-6.9421875 9.68783203 -6.478125 9.01042969 -6 8.3125 C-5.5359375 7.62349609 -5.071875 6.93449219 -4.59375 6.22460938 C-1.18332067 1.18332067 -1.18332067 1.18332067 0 0 Z " fill="#080808" transform="translate(92,80)"/>
<path d="M0 0 C5.94 0 11.88 0 18 0 C18.66 1.32 19.32 2.64 20 4 C18 6 18 6 16.12060547 6.22705078 C15.37697754 6.21657715 14.63334961 6.20610352 13.8671875 6.1953125 C13.06152344 6.18886719 12.25585938 6.18242188 11.42578125 6.17578125 C10.58402344 6.15902344 9.74226563 6.14226563 8.875 6.125 C7.60076172 6.11146484 7.60076172 6.11146484 6.30078125 6.09765625 C4.20040116 6.07405647 2.10016556 6.03818483 0 6 C0 4.02 0 2.04 0 0 Z " fill="#DEDEDE" transform="translate(109,52)"/>
<path d="M0 0 C0.74362793 0.01047363 1.48725586 0.02094727 2.25341797 0.03173828 C3.46191406 0.04140625 3.46191406 0.04140625 4.69482422 0.05126953 C5.95746094 0.07640625 5.95746094 0.07640625 7.24560547 0.10205078 C8.51984375 0.11558594 8.51984375 0.11558594 9.81982422 0.12939453 C11.9202043 0.15299431 14.02043991 0.18886595 16.12060547 0.22705078 C16.12060547 2.20705078 16.12060547 4.18705078 16.12060547 6.22705078 C10.18060547 6.22705078 4.24060547 6.22705078 -1.87939453 6.22705078 C-2.53939453 4.90705078 -3.19939453 3.58705078 -3.87939453 2.22705078 C-1.87939453 0.22705078 -1.87939453 0.22705078 0 0 Z " fill="#DEDEDE" transform="translate(53.87939453125,51.77294921875)"/>
<path d="M0 0 C0.33 0 0.66 0 1 0 C1 9.24 1 18.48 1 28 C3.97 28 6.94 28 10 28 C10.33 29.98 10.66 31.96 11 34 C7.7 34 4.4 34 1 34 C1.99 33.505 1.99 33.505 3 33 C3 31.68 3 30.36 3 29 C1.68 28.67 0.36 28.34 -1 28 C-0.67 18.76 -0.34 9.52 0 0 Z M-5 29 C-3.68 29 -2.36 29 -1 29 C-1 30.65 -1 32.3 -1 34 C-1.99 34 -2.98 34 -4 34 C-4.33 32.35 -4.66 30.7 -5 29 Z " fill="#242424" transform="translate(128,86)"/>
<path d="M0 0 C1.65 0.33 3.3 0.66 5 1 C5 3.83967231 4.59732819 6.23735711 4 9 C2.68 9.33 1.36 9.66 0 10 C-1.60339848 6.88228073 -2.18974141 5.60988311 -1.125 2.1875 C-0.75375 1.465625 -0.3825 0.74375 0 0 Z " fill="#F2F2F2" transform="translate(146,112)"/>
<path d="M0 0 C0.99 0.33 1.98 0.66 3 1 C2.814375 1.804375 2.62875 2.60875 2.4375 3.4375 C2.2209375 4.7059375 2.2209375 4.7059375 2 6 C3.1490712 7.2981424 3.1490712 7.2981424 6 8 C5 9 5 9 1.4375 9.0625 C0.303125 9.041875 -0.83125 9.02125 -2 9 C-1.125 1.125 -1.125 1.125 0 0 Z " fill="#F5F5F5" transform="translate(131,105)"/>
<path d="M0 0 C1.32 0.66 2.64 1.32 4 2 C3.01 2.99 2.02 3.98 1 5 C0.01 4.67 -0.98 4.34 -2 4 C-1.34 2.68 -0.68 1.36 0 0 Z " fill="#242424" transform="translate(85,113)"/>
</svg>
